# Blender v2.79 (sub 0) OBJ File: 'pallet.blend'
# www.blender.org
mtllib pallet.mtl
v 0.400000 0.000000 -0.080000
v 0.400000 0.000000 0.080000
v -0.400000 0.000000 0.080000
v -0.400000 0.000000 -0.080000
v 0.400000 0.100000 -0.079999
v 0.399999 0.100000 0.080001
v -0.400000 0.100000 0.080000
v -0.400000 0.100000 -0.080000
v 0.400000 0.000000 -0.600000
v 0.400000 0.000000 -0.450000
v -0.400000 0.000000 -0.450000
v -0.400000 0.000000 -0.600000
v 0.399999 0.100000 -0.449999
v -0.400000 0.100000 -0.450000
v 0.400000 0.000000 0.450000
v 0.400000 0.000000 0.600000
v -0.400000 0.000000 0.600000
v -0.400000 0.000000 0.450000
v 0.400000 0.100000 0.450000
v -0.400000 0.100000 0.450000
v 0.400000 0.100000 0.600000
v 0.220000 0.100000 0.600000
v 0.220000 0.100000 -0.600000
v 0.400000 0.100000 -0.600000
v 0.400000 0.150000 0.600001
v 0.219999 0.150000 0.599999
v 0.220000 0.150000 -0.600000
v 0.400000 0.150000 -0.600000
v 0.090000 0.100000 0.600000
v -0.090000 0.100000 0.600000
v -0.090000 0.100000 -0.600000
v 0.090000 0.100000 -0.600000
v 0.090000 0.150000 0.600001
v -0.090001 0.150000 0.599999
v -0.090000 0.150000 -0.600000
v 0.090000 0.150000 -0.600000
v -0.220000 0.100000 0.600000
v -0.400000 0.100000 0.600000
v -0.400000 0.100000 -0.600000
v -0.220000 0.100000 -0.600000
v -0.220000 0.150000 0.600001
v -0.400001 0.150000 0.599999
v -0.400000 0.150000 -0.600000
v -0.220000 0.150000 -0.600000
vt 0.690634 0.565566
vt 0.076941 0.510545
vt 0.690634 0.510545
vt 0.076941 0.654975
vt 0.690634 0.599954
vt 0.690635 0.654975
vt 0.767346 0.510546
vt 0.076941 0.565566
vt 0.000229 0.510545
vt 0.076941 0.476157
vt 0.690635 0.476157
vt 0.690635 0.792985
vt 0.076941 0.741403
vt 0.690635 0.741403
vt 0.076941 0.707015
vt 0.690634 0.655433
vt 0.690635 0.707015
vt 0.767346 0.741403
vt 0.690634 0.827373
vt 0.076941 0.792985
vt 0.000229 0.741403
vt 0.690634 0.913801
vt 0.076941 0.862219
vt 0.690634 0.862219
vt 0.076941 0.999771
vt 0.690634 0.948189
vt 0.690635 0.999771
vt 0.767346 0.862219
vt 0.076941 0.948189
vt 0.076941 0.913801
vt 0.000229 0.862219
vt 0.076941 0.827831
vt 0.690635 0.827831
vt 0.038585 0.000229
vt 0.959125 0.062127
vt 0.038585 0.062127
vt 0.959125 0.079322
vt 0.038586 0.141220
vt 0.038585 0.079321
vt 0.000230 0.141220
vt 0.000229 0.079321
vt 0.959125 0.158414
vt 0.038585 0.158414
vt 0.997481 0.141220
vt 0.997481 0.079322
vt 0.038585 0.158872
vt 0.959125 0.220770
vt 0.038585 0.220770
vt 0.959125 0.237965
vt 0.038585 0.299863
vt 0.038585 0.237964
vt 0.000230 0.299863
vt 0.000229 0.237964
vt 0.959125 0.317057
vt 0.038585 0.317057
vt 0.997481 0.299863
vt 0.997481 0.237964
vt 0.038585 0.413801
vt 0.959125 0.475700
vt 0.038585 0.475700
vt 0.959125 0.334709
vt 0.038586 0.396607
vt 0.038585 0.334709
vt 0.000230 0.396607
vt 0.000229 0.334709
vt 0.959125 0.413802
vt 0.997481 0.396607
vt 0.997481 0.334709
vt 0.038585 0.317515
vt 0.076940 0.599954
vt 0.767346 0.565567
vt 0.000229 0.565566
vt 0.076940 0.655433
vt 0.767346 0.792985
vt 0.076940 0.827373
vt 0.000229 0.792985
vt 0.767346 0.913801
vt 0.000229 0.913801
vt 0.959125 0.000229
vt 0.959125 0.141220
vt 0.959125 0.158872
vt 0.959125 0.299863
vt 0.959126 0.396607
vt 0.959125 0.317515
vn 0.0000 -1.0000 0.0000
vn 0.0000 1.0000 0.0000
vn 1.0000 -0.0000 0.0000
vn -0.0000 -0.0000 1.0000
vn -1.0000 -0.0000 -0.0000
vn 0.0000 0.0000 -1.0000
usemtl pallet_material
s off
f 2/1/1 4/2/1 1/3/1
f 8/4/2 6/5/2 5/6/2
f 5/7/3 2/1/3 1/3/3
f 6/5/4 3/8/4 2/1/4
f 3/8/5 8/9/5 4/2/5
f 1/3/6 8/10/6 5/11/6
f 10/12/1 12/13/1 9/14/1
f 39/15/2 13/16/2 24/17/2
f 24/18/3 10/12/3 9/14/3
f 13/19/4 11/20/4 10/12/4
f 11/20/5 39/21/5 12/13/5
f 9/14/6 39/15/6 24/17/6
f 16/22/1 18/23/1 15/24/1
f 20/25/2 21/26/2 19/27/2
f 19/28/3 16/22/3 15/24/3
f 16/22/4 38/29/4 17/30/4
f 17/30/5 20/31/5 18/23/5
f 15/24/6 20/32/6 19/33/6
f 22/34/1 24/35/1 21/36/1
f 28/37/2 26/38/2 25/39/2
f 25/39/4 22/40/4 21/41/4
f 26/38/5 23/42/5 22/43/5
f 23/44/6 28/37/6 24/45/6
f 21/36/3 28/37/3 25/39/3
f 30/46/1 32/47/1 29/48/1
f 36/49/2 34/50/2 33/51/2
f 33/51/4 30/52/4 29/53/4
f 34/50/5 31/54/5 30/55/5
f 31/56/6 36/49/6 32/57/6
f 29/48/3 36/49/3 33/51/3
f 38/58/1 40/59/1 37/60/1
f 44/61/2 42/62/2 41/63/2
f 41/63/4 38/64/4 37/65/4
f 42/62/5 39/66/5 38/58/5
f 39/67/6 44/61/6 40/68/6
f 37/69/3 44/61/3 41/63/3
f 2/1/1 3/8/1 4/2/1
f 8/4/2 7/70/2 6/5/2
f 5/7/3 6/71/3 2/1/3
f 6/5/4 7/70/4 3/8/4
f 3/8/5 7/72/5 8/9/5
f 1/3/6 4/2/6 8/10/6
f 10/12/1 11/20/1 12/13/1
f 39/15/2 14/73/2 13/16/2
f 24/18/3 13/74/3 10/12/3
f 13/19/4 14/75/4 11/20/4
f 11/20/5 14/76/5 39/21/5
f 9/14/6 12/13/6 39/15/6
f 16/22/1 17/30/1 18/23/1
f 20/25/2 38/29/2 21/26/2
f 19/28/3 21/77/3 16/22/3
f 16/22/4 21/26/4 38/29/4
f 17/30/5 38/78/5 20/31/5
f 15/24/6 18/23/6 20/32/6
f 22/34/1 23/79/1 24/35/1
f 28/37/2 27/80/2 26/38/2
f 25/39/4 26/38/4 22/40/4
f 26/38/5 27/80/5 23/42/5
f 23/44/6 27/80/6 28/37/6
f 21/36/3 24/35/3 28/37/3
f 30/46/1 31/81/1 32/47/1
f 36/49/2 35/82/2 34/50/2
f 33/51/4 34/50/4 30/52/4
f 34/50/5 35/82/5 31/54/5
f 31/56/6 35/82/6 36/49/6
f 29/48/3 32/47/3 36/49/3
f 38/58/1 39/66/1 40/59/1
f 44/61/2 43/83/2 42/62/2
f 41/63/4 42/62/4 38/64/4
f 42/62/5 43/83/5 39/66/5
f 39/67/6 43/83/6 44/61/6
f 37/69/3 40/84/3 44/61/3
