# Blender v2.79 (sub 0) OBJ File: 'street_light.blend'
# www.blender.org
mtllib street_light_lamp.mtl
v -0.302284 -0.066989 0.186021
v -0.305187 0.046238 0.187590
v -0.299167 -0.061658 -0.192780
v -0.302070 0.051568 -0.191210
v 0.302070 -0.051568 0.191210
v 0.299167 0.061658 0.192780
v 0.305187 -0.046238 -0.187590
v 0.302284 0.066989 -0.186021
vn -0.9996 -0.0255 -0.0086
vn 0.0082 0.0141 -0.9999
vn 0.9996 0.0255 0.0086
vn -0.0082 -0.0141 0.9999
vn 0.0256 -0.9996 -0.0139
vn -0.0256 0.9996 0.0139
usemtl None
s off
f 2//1 3//1 1//1
f 4//2 7//2 3//2
f 8//3 5//3 7//3
f 6//4 1//4 5//4
f 7//5 1//5 3//5
f 4//6 6//6 8//6
f 2//1 4//1 3//1
f 4//2 8//2 7//2
f 8//3 6//3 5//3
f 6//4 2//4 1//4
f 7//5 5//5 1//5
f 4//6 2//6 6//6
