# Blender v2.79 (sub 0) OBJ File: 'street_light.blend'
# www.blender.org
mtllib street_light.mtl
v -2.676524 -8.916092 0.204571
v -2.715700 -0.233714 0.109991
v -2.845996 -8.916092 0.204571
v -2.806820 -0.233714 0.109991
v -2.965831 -8.916092 0.084736
v -2.871251 -0.233714 0.045560
v -2.965831 -8.916092 -0.084736
v -2.871251 -0.233714 -0.045560
v -2.845996 -8.916092 -0.204571
v -2.806820 -0.233714 -0.109991
v -2.676524 -8.916092 -0.204571
v -2.715700 -0.233714 -0.109991
v -2.556689 -8.916092 -0.084736
v -2.651269 -0.233714 -0.045560
v -2.556689 -8.916092 0.084736
v -2.651269 -0.233714 0.045560
v -2.709438 -7.535738 0.125110
v -2.813082 -7.535738 0.125110
v -2.886370 -7.535738 0.051822
v -2.886370 -7.535738 -0.051822
v -2.813082 -7.535738 -0.125110
v -2.709438 -7.535738 -0.125110
v -2.636150 -7.535738 -0.051822
v -2.636150 -7.535738 0.051822
v -2.845996 -7.752062 0.204571
v -2.965831 -7.752062 0.084736
v -2.965831 -7.752062 -0.084736
v -2.845996 -7.752062 -0.204571
v -2.676524 -7.752062 -0.204571
v -2.556689 -7.752062 -0.084736
v -2.556689 -7.752062 0.084736
v -2.676524 -7.752062 0.204571
v -2.715599 -0.352364 0.110236
v -2.806921 -0.352364 0.110236
v -2.871496 -0.352364 0.045661
v -2.871496 -0.352364 -0.045661
v -2.806921 -0.352364 -0.110236
v -2.715599 -0.352364 -0.110236
v -2.651024 -0.352364 -0.045661
v -2.651024 -0.352364 0.045661
v -2.807423 -0.937126 0.111447
v -2.872707 -0.937126 0.046163
v -2.872707 -0.937126 -0.046163
v -2.807423 -0.937126 -0.111447
v -2.715097 -0.937126 -0.111447
v -2.649813 -0.937126 -0.046163
v -2.649813 -0.937126 0.046163
v -2.715097 -0.937126 0.111447
v -2.699182 -0.447794 0.149869
v -2.823338 -0.447794 0.149869
v -2.911129 -0.447794 0.062078
v -2.911129 -0.447794 -0.062078
v -2.823338 -0.447794 -0.149869
v -2.699182 -0.447794 -0.149869
v -2.611391 -0.447794 -0.062078
v -2.611391 -0.447794 0.062078
v -2.823810 -0.853376 0.151009
v -2.912269 -0.853376 0.062550
v -2.912269 -0.853376 -0.062550
v -2.823810 -0.853376 -0.151009
v -2.698710 -0.853376 -0.151009
v -2.610251 -0.853376 -0.062550
v -2.610251 -0.853376 0.062550
v -2.698710 -0.853376 0.151009
v -2.699080 -0.535595 0.150116
v -2.823440 -0.535595 0.150116
v -2.911376 -0.535595 0.062180
v -2.911376 -0.535595 -0.062180
v -2.823440 -0.535595 -0.150116
v -2.699080 -0.535595 -0.150116
v -2.611144 -0.535595 -0.062180
v -2.611144 -0.535595 0.062180
v -2.823667 -0.730271 0.150663
v -2.911923 -0.730271 0.062407
v -2.911923 -0.730271 -0.062407
v -2.823667 -0.730271 -0.150663
v -2.698853 -0.730271 -0.150663
v -2.610597 -0.730271 -0.062407
v -2.610597 -0.730271 0.062407
v -2.698853 -0.730271 0.150663
v -2.555516 -0.535439 -0.062180
v -2.555516 -0.535439 0.062180
v -2.554969 -0.730115 -0.062407
v -2.554969 -0.730115 0.062407
v -2.699030 -0.578817 0.150237
v -2.823490 -0.578816 0.150237
v -2.911497 -0.578816 0.062230
v -2.911498 -0.578816 -0.062230
v -2.823490 -0.578816 -0.150237
v -2.699030 -0.578816 -0.150237
v -2.611023 -0.578816 -0.062230
v -2.611022 -0.578816 0.062230
v -2.555395 -0.578660 -0.062230
v -2.555395 -0.578660 0.062230
v -2.823613 -0.684329 0.150534
v -2.911794 -0.684329 0.062353
v -2.911794 -0.684329 -0.062353
v -2.823613 -0.684329 -0.150534
v -2.698907 -0.684329 -0.150534
v -2.610726 -0.684329 -0.062353
v -2.610726 -0.684329 0.062353
v -2.555098 -0.684173 -0.062353
v -2.555098 -0.684173 0.062353
v -2.698907 -0.684330 0.150534
v -1.718223 -0.179677 -0.056058
v -1.718223 -0.179677 0.056058
v -1.717956 -0.274724 -0.056169
v -1.717956 -0.274724 0.056169
v -0.776579 0.106199 -0.084671
v -0.776578 0.106199 0.084670
v -0.776175 -0.037362 -0.084838
v -0.776175 -0.037362 0.084837
v -0.776484 0.072561 -0.044993
v -0.776484 0.072561 0.044992
v -0.776270 -0.003725 -0.045082
v -0.776270 -0.003725 0.045081
v -0.311660 0.272826 -0.273338
v -0.311660 0.272826 0.273337
v -0.310851 -0.015133 -0.273878
v -0.310851 -0.015133 0.273877
v 0.363707 0.362794 -0.323195
v 0.363708 0.362794 0.323193
v 0.364664 0.022312 -0.323833
v 0.364663 0.022312 0.323832
v 0.468322 0.268308 -0.199586
v 0.468322 0.268308 0.199584
v 0.468912 0.058048 -0.199979
v 0.468912 0.058048 0.199978
v -2.676524 -9.079269 0.204571
v -2.845996 -9.079269 0.204571
v -2.965831 -9.079269 0.084736
v -2.965831 -9.079269 -0.084736
v -2.845996 -9.079269 -0.204571
v -2.676524 -9.079269 -0.204571
v -2.556689 -9.079269 -0.084736
v -2.556689 -9.079269 0.084736
v -2.633157 -8.916092 0.309268
v -2.889363 -8.916039 0.309268
v -3.070528 -8.916018 0.128103
v -3.070528 -8.916039 -0.128103
v -2.889363 -8.916092 -0.309268
v -2.633157 -8.916143 -0.309268
v -2.451992 -8.916164 -0.128103
v -2.451992 -8.916145 0.128103
v -2.633157 -9.079269 0.309268
v -2.889364 -9.079217 0.309268
v -3.070528 -9.079196 0.128103
v -3.070528 -9.079217 -0.128103
v -2.889364 -9.079269 -0.309268
v -2.633157 -9.079321 -0.309268
v -2.451992 -9.079342 -0.128103
v -2.451992 -9.079323 0.128103
vt 0.239168 0.525391
vt 0.252909 0.543423
vt 0.239075 0.543364
vt 0.252970 0.525450
vt 0.266743 0.543459
vt 0.266773 0.525485
vt 0.280576 0.543471
vt 0.280576 0.525497
vt 0.294410 0.543459
vt 0.308182 0.525450
vt 0.308244 0.543423
vt 0.322078 0.543364
vt 0.275769 0.669735
vt 0.252205 0.679495
vt 0.242445 0.655932
vt 0.321985 0.525391
vt 0.335911 0.543281
vt 0.225365 0.525308
vt 0.225242 0.543281
vt 0.408139 0.375345
vt 0.374126 0.386929
vt 0.401569 0.359486
vt 0.127911 0.568192
vt 0.168453 0.566454
vt 0.141932 0.589697
vt 0.251965 0.566454
vt 0.292506 0.568192
vt 0.278485 0.589697
vt 0.240051 0.576680
vt 0.259005 0.606417
vt 0.225752 0.583162
vt 0.235623 0.617016
vt 0.210209 0.585381
vt 0.210209 0.620646
vt 0.194666 0.583162
vt 0.184795 0.617016
vt 0.180366 0.576680
vt 0.161413 0.606417
vt 0.305953 0.176527
vt 0.280281 0.000197
vt 0.305953 0.000197
vt 0.280281 0.176527
vt 0.254609 0.000197
vt 0.254609 0.176527
vt 0.228937 0.000197
vt 0.228937 0.176527
vt 0.203265 0.000197
vt 0.203265 0.176527
vt 0.177592 0.000197
vt 0.177592 0.176527
vt 0.151920 0.000197
vt 0.151920 0.176527
vt 0.126248 0.000197
vt 0.331625 0.000197
vt 0.143004 0.646172
vt 0.136394 0.667798
vt 0.127911 0.651012
vt 0.220720 0.658518
vt 0.242052 0.651012
vt 0.233569 0.667798
vt 0.210961 0.668323
vt 0.220302 0.681128
vt 0.198644 0.674621
vt 0.203556 0.689690
vt 0.184982 0.692641
vt 0.171319 0.674621
vt 0.166407 0.689690
vt 0.159002 0.668323
vt 0.149662 0.681128
vt 0.149243 0.658518
vt 0.104974 0.999719
vt 0.094446 0.000251
vt 0.110147 0.000319
vt 0.090991 0.999659
vt 0.078738 0.000210
vt 0.077007 0.999622
vt 0.063030 0.000197
vt 0.063024 0.999610
vt 0.047321 0.000210
vt 0.049040 0.999622
vt 0.031613 0.000251
vt 0.035057 0.999658
vt 0.015905 0.000318
vt 0.021073 0.999719
vt 0.000197 0.000413
vt 0.118957 0.999803
vt 0.125855 0.000414
vt 0.485791 0.160294
vt 0.472381 0.179039
vt 0.472490 0.160201
vt 0.485681 0.179101
vt 0.472315 0.197878
vt 0.485615 0.197909
vt 0.472293 0.216716
vt 0.485594 0.216716
vt 0.472315 0.235554
vt 0.485615 0.235524
vt 0.472381 0.254393
vt 0.485681 0.254331
vt 0.472490 0.273231
vt 0.485791 0.273138
vt 0.472644 0.292069
vt 0.485944 0.141487
vt 0.472644 0.141363
vt 0.239285 0.524915
vt 0.231651 0.504671
vt 0.244016 0.511753
vt 0.313677 0.511753
vt 0.332451 0.522505
vt 0.318408 0.524915
vt 0.304718 0.501014
vt 0.326042 0.504671
vt 0.297507 0.480616
vt 0.292618 0.494000
vt 0.278847 0.491563
vt 0.260186 0.480616
vt 0.265075 0.494000
vt 0.243791 0.490119
vt 0.252975 0.501014
vt 0.466097 0.141303
vt 0.465943 0.160156
vt 0.468217 0.384871
vt 0.476644 0.378324
vt 0.476644 0.384871
vt 0.465943 0.273277
vt 0.465834 0.254423
vt 0.465768 0.235570
vt 0.465746 0.216716
vt 0.465768 0.197862
vt 0.465834 0.179009
vt 0.443001 0.159996
vt 0.424243 0.178815
vt 0.424353 0.159865
vt 0.442891 0.178902
vt 0.424177 0.197766
vt 0.442825 0.197809
vt 0.424155 0.216716
vt 0.442803 0.216716
vt 0.424177 0.235667
vt 0.442825 0.235623
vt 0.424243 0.254617
vt 0.442891 0.254530
vt 0.424353 0.273567
vt 0.443001 0.273437
vt 0.424508 0.292517
vt 0.424508 0.140916
vt 0.465398 0.133330
vt 0.446552 0.126783
vt 0.465406 0.126783
vt 0.468217 0.426721
vt 0.476643 0.407814
vt 0.476643 0.426721
vt 0.476644 0.433681
vt 0.468217 0.433681
vt 0.468217 0.359486
vt 0.468217 0.378324
vt 0.468217 0.449664
vt 0.476644 0.456211
vt 0.468217 0.456211
vt 0.232450 0.359092
vt 0.367071 0.343386
vt 0.372385 0.356783
vt 0.449850 0.178934
vt 0.449960 0.160044
vt 0.449785 0.197825
vt 0.449763 0.216716
vt 0.449785 0.235607
vt 0.449851 0.254498
vt 0.449960 0.273388
vt 0.468217 0.400855
vt 0.476644 0.400855
vt 0.450114 0.141154
vt 0.443155 0.141089
vt 0.468217 0.407814
vt 0.411898 0.172985
vt 0.392999 0.166026
vt 0.411906 0.166026
vt 0.476644 0.449664
vt 0.366940 0.326192
vt 0.516113 0.339978
vt 0.232537 0.292910
vt 0.372041 0.312742
vt 0.232268 0.311681
vt 0.225242 0.325989
vt 0.225315 0.344844
vt 0.126248 0.444902
vt 0.196820 0.478905
vt 0.169082 0.512571
vt 0.515973 0.326368
vt 0.519498 0.350988
vt 0.372403 0.295841
vt 0.519111 0.315281
vt 0.414746 0.139955
vt 0.409650 0.159597
vt 0.409650 0.145965
vt 0.414746 0.165607
vt 0.398094 0.159610
vt 0.398094 0.145952
vt 0.392999 0.139930
vt 0.392999 0.165632
vt 0.275376 0.187090
vt 0.177596 0.282695
vt 0.192622 0.181035
vt 0.132585 0.362265
vt 0.224848 0.357186
vt 0.148760 0.382175
vt 0.148754 0.403922
vt 0.140072 0.428114
vt 0.224848 0.400807
vt 0.250432 0.359486
vt 0.253638 0.403973
vt 0.225242 0.404493
vt 0.318939 0.189341
vt 0.275444 0.289855
vt 0.149196 0.176920
vt 0.126248 0.277830
vt 0.400814 0.176920
vt 0.326953 0.292517
vt 0.392605 0.139930
vt 0.332078 0.171780
vt 0.332019 0.139930
vt 0.307839 0.476921
vt 0.345336 0.403973
vt 0.373732 0.404493
vt 0.348542 0.359486
vt 0.269194 0.376180
vt 0.329780 0.376180
vt 0.451964 0.513261
vt 0.433811 0.531414
vt 0.408139 0.469436
vt 0.389986 0.513261
vt 0.401569 0.547274
vt 0.374126 0.519831
vt 0.408139 0.531414
vt 0.440380 0.547274
vt 0.408139 0.437323
vt 0.374126 0.425740
vt 0.389986 0.419170
vt 0.467823 0.519831
vt 0.451964 0.487589
vt 0.451964 0.419170
vt 0.440380 0.453183
vt 0.433811 0.437323
vt 0.433811 0.469436
vt 0.467823 0.481020
vt 0.283154 0.621042
vt 0.244344 0.645758
vt 0.244344 0.621039
vt 0.399587 0.621060
vt 0.360776 0.645775
vt 0.360776 0.621057
vt 0.321965 0.621049
vt 0.283155 0.645761
vt 0.438398 0.645775
vt 0.399587 0.645778
vt 0.205533 0.621043
vt 0.205533 0.645761
vt 0.321965 0.645768
vt 0.127911 0.621060
vt 0.166722 0.645770
vt 0.127912 0.645778
vt 0.166722 0.621051
vt 0.467823 0.386929
vt 0.467823 0.425740
vt 0.389986 0.487589
vt 0.374126 0.481020
vt 0.401569 0.453183
vt 0.401569 0.453577
vt 0.440380 0.453577
vt 0.389986 0.393498
vt 0.451963 0.393498
vt 0.440380 0.359486
vt 0.433811 0.375345
vt 0.294379 0.525485
vt 0.252205 0.646172
vt 0.266008 0.646172
vt 0.275769 0.655932
vt 0.266008 0.679495
vt 0.242445 0.669735
vt 0.335788 0.525308
vt 0.159878 0.553302
vt 0.260540 0.553302
vt 0.126248 0.176527
vt 0.331625 0.176527
vt 0.226960 0.646172
vt 0.184982 0.676792
vt 0.007090 0.999803
vt 0.485944 0.291945
vt 0.225242 0.522505
vt 0.313902 0.490119
vt 0.278847 0.477314
vt 0.443155 0.292343
vt 0.446560 0.133330
vt 0.476644 0.359486
vt 0.393007 0.172985
vt 0.519498 0.301700
vt 0.172633 0.292910
vt 0.423761 0.277830
vt 0.392545 0.171780
vt 0.304645 0.448700
vt 0.438397 0.621056
vn 0.0000 0.0021 1.0000
vn -0.7071 0.0021 0.7071
vn -1.0000 0.0021 0.0000
vn -0.7071 0.0021 -0.7071
vn 0.0000 0.0021 -1.0000
vn 0.7071 0.0021 -0.7071
vn 0.0000 1.0000 0.0000
vn 1.0000 0.0021 0.0000
vn 0.7071 0.0021 0.7071
vn 0.0004 1.0000 -0.0003
vn 0.6637 0.3448 0.6637
vn 0.9387 0.3448 0.0000
vn 0.6637 0.3448 -0.6637
vn 0.0000 0.3448 -0.9387
vn -0.6637 0.3448 -0.6637
vn -0.9387 0.3448 0.0000
vn -0.6637 0.3448 0.6637
vn 0.0000 0.3448 0.9387
vn 0.0000 0.0000 1.0000
vn -0.7071 0.0000 0.7071
vn -1.0000 0.0000 0.0000
vn -0.7071 0.0000 -0.7071
vn 0.0000 0.0000 -1.0000
vn 0.7071 0.0000 -0.7071
vn 1.0000 0.0000 0.0000
vn 0.7071 0.0000 0.7071
vn 0.6530 0.3835 0.6530
vn 0.9235 0.3835 0.0000
vn 0.6530 0.3835 -0.6530
vn 0.0000 0.3835 -0.9235
vn -0.6530 0.3835 -0.6530
vn -0.9235 0.3835 0.0000
vn -0.6530 0.3835 0.6530
vn 0.0000 0.3835 0.9235
vn 0.0000 0.0028 1.0000
vn -0.7071 0.0028 0.7071
vn -1.0000 0.0028 0.0000
vn -0.7071 0.0028 -0.7071
vn 0.0000 0.0028 -1.0000
vn 0.7071 0.0028 -0.7071
vn 1.0000 0.0028 0.0000
vn 0.7071 0.0028 0.7071
vn 0.6394 -0.4271 0.6394
vn 0.9042 -0.4271 0.0000
vn 0.6394 -0.4271 -0.6394
vn 0.0000 -0.4271 -0.9042
vn -0.6394 -0.4271 -0.6394
vn -0.9042 -0.4271 0.0000
vn -0.6394 -0.4271 0.6394
vn -0.0000 -0.4271 0.9042
vn -0.0000 0.0012 -1.0000
vn 0.0028 -1.0000 0.0000
vn -0.0000 0.0012 1.0000
vn -0.0028 1.0000 0.0000
vn 0.0068 0.0012 1.0000
vn 0.2766 -0.9610 0.0000
vn -0.4302 0.9027 0.0000
vn 0.0068 0.0012 -1.0000
vn 0.4394 -0.8983 0.0000
vn -0.3762 0.0007 0.9265
vn 0.0114 0.0012 -0.9999
vn 0.0114 0.0012 0.9999
vn -0.2587 0.9660 0.0000
vn -1.0000 -0.0028 0.0000
vn 0.0553 -0.9985 0.0000
vn -0.3374 0.9414 0.0000
vn 0.0477 -0.9989 0.0000
vn -0.3764 0.0000 -0.9265
vn 0.7646 0.0034 0.6445
vn -0.0738 0.0017 -0.9973
vn -0.0738 0.0017 0.9973
vn -0.1320 0.9912 0.0000
vn 0.6703 0.7421 -0.0000
vn 0.3243 -0.9460 0.0000
vn 0.7646 0.0034 -0.6445
vn 0.0000 -1.0000 0.0000
vn -0.0002 -1.0000 0.0004
vn -0.0002 -1.0000 0.0001
vn 0.0004 1.0000 0.0004
vn -0.0005 -1.0000 0.0001
vn -0.0005 -1.0000 0.0005
vn 0.0003 1.0000 -0.0003
vn 0.0000 -1.0000 0.0005
vn 0.0007 1.0000 -0.0001
vn -0.0005 -1.0000 0.0004
vn -0.0005 -1.0000 0.0000
vn 0.0007 1.0000 0.0000
vn 0.0004 1.0000 0.0002
vn 0.0002 1.0000 -0.0001
vn 0.0005 1.0000 -0.0005
vn -0.3764 0.0000 0.9265
vn -0.3762 0.0007 -0.9265
vn -0.0004 -1.0000 -0.0004
vn -0.0007 -1.0000 0.0000
vn -0.0004 -1.0000 0.0003
vn 0.0005 1.0000 -0.0004
vn 0.0005 1.0000 0.0000
vn -0.0004 -1.0000 0.0004
vn 0.0002 1.0000 -0.0004
vn -0.0007 -1.0000 0.0001
vn -0.0004 -1.0000 -0.0002
vn 0.0005 1.0000 -0.0001
vn 0.0000 1.0000 -0.0005
usemtl Material.001
s off
f 2/1/1 34/2/1 33/3/1
f 4/4/2 35/5/2 34/2/2
f 6/6/3 36/7/3 35/5/3
f 8/8/4 37/9/4 36/7/4
f 37/9/5 12/10/5 38/11/5
f 12/10/6 39/12/6 38/11/6
f 14/13/7 10/14/7 6/15/7
f 14/16/8 40/17/8 39/12/8
f 16/18/9 33/3/9 40/19/9
f 3/20/10 139/21/10 138/22/10
f 31/23/11 17/24/11 32/25/11
f 23/26/12 31/27/12 30/28/12
f 22/29/13 30/28/13 29/30/13
f 21/31/14 29/30/14 28/32/14
f 20/33/15 28/32/15 27/34/15
f 19/35/16 27/34/16 26/36/16
f 18/37/17 26/36/17 25/38/17
f 17/24/18 25/38/18 32/25/18
f 32/39/19 3/40/19 1/41/19
f 25/42/20 5/43/20 3/40/20
f 26/44/21 7/45/21 5/43/21
f 27/46/22 9/47/22 7/45/22
f 28/48/23 11/49/23 9/47/23
f 29/50/24 13/51/24 11/49/24
f 30/52/25 15/53/25 13/51/25
f 15/54/26 32/39/26 1/41/26
f 40/55/27 49/56/27 56/57/27
f 39/58/28 56/59/28 55/60/28
f 38/61/29 55/60/29 54/62/29
f 37/63/30 54/62/30 53/64/30
f 52/65/31 37/63/31 53/64/31
f 35/66/32 52/65/32 51/67/32
f 34/68/33 51/67/33 50/69/33
f 33/70/34 50/69/34 49/56/34
f 48/71/1 18/72/1 17/73/1
f 41/74/2 19/75/2 18/72/2
f 42/76/3 20/77/3 19/75/3
f 43/78/4 21/79/4 20/77/4
f 44/80/5 22/81/5 21/79/5
f 45/82/6 23/83/6 22/81/6
f 46/84/8 24/85/8 23/83/8
f 47/86/9 17/73/9 24/87/9
f 49/88/35 66/89/35 65/90/35
f 50/91/36 67/92/36 66/89/36
f 51/93/37 68/94/37 67/92/37
f 52/95/38 69/96/38 68/94/38
f 53/97/39 70/98/39 69/96/39
f 54/99/40 71/100/40 70/98/40
f 55/101/41 72/102/41 71/100/41
f 56/103/42 65/90/42 72/104/42
f 47/105/43 64/106/43 48/107/43
f 46/108/44 63/109/44 47/110/44
f 45/111/45 62/112/45 46/108/45
f 60/113/46 45/111/46 44/114/46
f 43/115/47 60/113/47 44/114/47
f 58/116/48 43/115/48 42/117/48
f 57/118/49 42/117/49 41/119/49
f 64/106/50 41/119/50 48/107/50
f 92/120/42 65/90/42 85/121/42
f 91/122/51 81/123/51 93/124/51
f 70/98/40 91/125/40 90/126/40
f 69/96/39 90/126/39 89/127/39
f 68/94/38 89/127/38 88/128/38
f 67/92/37 88/128/37 87/129/37
f 66/89/36 87/129/36 86/130/36
f 65/90/35 86/130/35 85/121/35
f 80/131/35 57/132/35 64/133/35
f 73/134/36 58/135/36 57/132/36
f 74/136/37 59/137/37 58/135/37
f 75/138/38 60/139/38 59/137/38
f 76/140/39 61/141/39 60/139/39
f 77/142/40 62/143/40 61/141/40
f 78/144/41 63/145/41 62/143/41
f 63/146/42 80/131/42 64/133/42
f 81/147/41 94/148/41 93/149/41
f 79/150/52 83/151/52 84/152/52
f 79/150/53 103/153/53 101/154/53
f 72/155/54 81/123/54 71/156/54
f 92/157/53 82/158/53 72/159/53
f 94/160/55 108/161/55 106/162/55
f 85/121/35 95/163/35 104/164/35
f 86/130/36 96/165/36 95/163/36
f 87/129/37 97/166/37 96/165/37
f 88/128/38 98/167/38 97/166/38
f 89/127/39 99/168/39 98/167/39
f 99/168/40 91/125/40 100/169/40
f 100/170/51 93/124/51 102/171/51
f 101/172/42 85/121/42 104/164/42
f 79/173/42 104/164/42 80/131/42
f 78/174/51 102/171/51 83/151/51
f 77/142/40 100/169/40 78/144/40
f 98/167/39 77/142/39 76/140/39
f 97/166/38 76/140/38 75/138/38
f 96/165/37 75/138/37 74/136/37
f 95/163/36 74/136/36 73/134/36
f 104/164/35 73/134/35 80/131/35
f 102/175/41 84/176/41 83/177/41
f 101/154/53 94/178/53 92/157/53
f 107/179/56 116/180/56 108/161/56
f 94/181/57 105/182/57 93/183/57
f 93/183/58 107/179/58 102/184/58
f 103/185/59 107/179/59 108/161/59
f 110/186/60 120/187/60 118/188/60
f 105/182/61 115/189/61 107/179/61
f 106/162/62 116/180/62 114/190/62
f 106/191/63 113/192/63 105/182/63
f 110/193/64 113/194/64 114/195/64
f 109/196/64 115/197/64 113/194/64
f 110/193/64 116/198/64 112/199/64
f 111/200/64 116/198/64 115/197/64
f 119/201/65 124/202/65 120/203/65
f 110/204/66 117/205/66 109/206/66
f 111/207/67 120/187/67 112/208/67
f 109/206/68 119/209/68 111/207/68
f 124/210/69 126/211/69 122/212/69
f 117/213/70 123/214/70 119/201/70
f 118/215/71 124/202/71 122/216/71
f 118/217/72 121/218/72 117/213/72
f 127/219/41 126/220/41 128/221/41
f 122/222/73 125/223/73 121/224/73
f 123/225/74 128/226/74 124/210/74
f 123/225/75 125/223/75 127/227/75
f 135/228/76 136/229/76 132/230/76
f 130/231/77 145/232/77 146/233/77
f 129/234/78 152/235/78 145/232/78
f 9/236/79 140/237/79 7/238/79
f 136/229/80 151/239/80 152/235/80
f 134/240/81 151/239/81 135/228/81
f 13/241/82 142/242/82 11/243/82
f 133/244/83 150/245/83 134/240/83
f 140/246/21 147/247/21 139/248/21
f 143/249/24 150/250/24 142/251/24
f 141/252/22 148/253/22 140/246/22
f 143/249/25 152/254/25 151/255/25
f 138/256/20 147/247/20 146/257/20
f 142/251/23 149/258/23 141/252/23
f 144/259/26 145/260/26 152/261/26
f 137/262/19 146/257/19 145/260/19
f 13/241/84 144/263/84 143/264/84
f 131/265/85 146/233/85 147/266/85
f 11/243/7 141/267/7 9/236/7
f 131/265/86 148/268/86 132/230/86
f 132/230/76 149/269/76 133/244/76
f 7/238/87 139/21/87 5/270/87
f 15/271/88 137/272/88 144/263/88
f 1/273/89 138/22/89 137/272/89
f 2/1/1 4/4/1 34/2/1
f 4/4/2 6/6/2 35/5/2
f 6/6/3 8/8/3 36/7/3
f 8/8/4 10/274/4 37/9/4
f 37/9/5 10/274/5 12/10/5
f 12/10/6 14/16/6 39/12/6
f 6/15/7 4/275/7 2/276/7
f 2/276/7 16/277/7 6/15/7
f 16/277/7 14/13/7 6/15/7
f 14/13/7 12/278/7 10/14/7
f 10/14/7 8/279/7 6/15/7
f 14/16/8 16/280/8 40/17/8
f 16/18/9 2/1/9 33/3/9
f 3/20/90 5/270/90 139/21/90
f 31/23/11 24/281/11 17/24/11
f 23/26/12 24/282/12 31/27/12
f 22/29/13 23/26/13 30/28/13
f 21/31/14 22/29/14 29/30/14
f 20/33/15 21/31/15 28/32/15
f 19/35/16 20/33/16 27/34/16
f 18/37/17 19/35/17 26/36/17
f 17/24/18 18/37/18 25/38/18
f 32/39/19 25/42/19 3/40/19
f 25/42/20 26/44/20 5/43/20
f 26/44/21 27/46/21 7/45/21
f 27/46/22 28/48/22 9/47/22
f 28/48/23 29/50/23 11/49/23
f 29/50/24 30/52/24 13/51/24
f 30/52/25 31/283/25 15/53/25
f 15/54/26 31/284/26 32/39/26
f 40/55/27 33/70/27 49/56/27
f 39/58/28 40/285/28 56/59/28
f 38/61/29 39/58/29 55/60/29
f 37/63/30 38/61/30 54/62/30
f 52/65/31 36/286/31 37/63/31
f 35/66/32 36/286/32 52/65/32
f 34/68/33 35/66/33 51/67/33
f 33/70/34 34/68/34 50/69/34
f 48/71/1 41/74/1 18/72/1
f 41/74/2 42/76/2 19/75/2
f 42/76/3 43/78/3 20/77/3
f 43/78/4 44/80/4 21/79/4
f 44/80/5 45/82/5 22/81/5
f 45/82/6 46/84/6 23/83/6
f 46/84/8 47/287/8 24/85/8
f 47/86/9 48/71/9 17/73/9
f 49/88/35 50/91/35 66/89/35
f 50/91/36 51/93/36 67/92/36
f 51/93/37 52/95/37 68/94/37
f 52/95/38 53/97/38 69/96/38
f 53/97/39 54/99/39 70/98/39
f 54/99/40 55/101/40 71/100/40
f 55/101/41 56/288/41 72/102/41
f 56/103/42 49/88/42 65/90/42
f 47/105/43 63/289/43 64/106/43
f 46/108/44 62/112/44 63/109/44
f 45/111/45 61/290/45 62/112/45
f 60/113/46 61/290/46 45/111/46
f 43/115/47 59/291/47 60/113/47
f 58/116/48 59/291/48 43/115/48
f 57/118/49 58/116/49 42/117/49
f 64/106/50 57/118/50 41/119/50
f 92/120/42 72/104/42 65/90/42
f 91/122/51 71/156/51 81/123/51
f 70/98/40 71/100/40 91/125/40
f 69/96/39 70/98/39 90/126/39
f 68/94/38 69/96/38 89/127/38
f 67/92/37 68/94/37 88/128/37
f 66/89/36 67/92/36 87/129/36
f 65/90/35 66/89/35 86/130/35
f 80/131/35 73/134/35 57/132/35
f 73/134/36 74/136/36 58/135/36
f 74/136/37 75/138/37 59/137/37
f 75/138/38 76/140/38 60/139/38
f 76/140/39 77/142/39 61/141/39
f 77/142/40 78/144/40 62/143/40
f 78/144/41 79/292/41 63/145/41
f 63/146/42 79/173/42 80/131/42
f 81/147/41 82/293/41 94/148/41
f 79/150/52 78/174/52 83/151/52
f 79/150/53 84/152/53 103/153/53
f 72/155/54 82/294/54 81/123/54
f 92/157/53 94/178/53 82/158/53
f 94/160/55 103/185/55 108/161/55
f 85/121/35 86/130/35 95/163/35
f 86/130/36 87/129/36 96/165/36
f 87/129/37 88/128/37 97/166/37
f 88/128/38 89/127/38 98/167/38
f 89/127/39 90/126/39 99/168/39
f 99/168/40 90/126/40 91/125/40
f 100/170/51 91/122/51 93/124/51
f 101/172/42 92/120/42 85/121/42
f 79/173/42 101/172/42 104/164/42
f 78/174/51 100/170/51 102/171/51
f 77/142/40 99/168/40 100/169/40
f 98/167/39 99/168/39 77/142/39
f 97/166/38 98/167/38 76/140/38
f 96/165/37 97/166/37 75/138/37
f 95/163/36 96/165/36 74/136/36
f 104/164/35 95/163/35 73/134/35
f 102/175/41 103/295/41 84/176/41
f 101/154/53 103/153/53 94/178/53
f 107/179/56 115/189/56 116/180/56
f 94/181/57 106/191/57 105/182/57
f 93/183/58 105/182/58 107/179/58
f 103/185/59 102/184/59 107/179/59
f 110/186/91 112/208/91 120/187/91
f 105/182/61 113/192/61 115/189/61
f 106/162/62 108/161/62 116/180/62
f 106/191/63 114/296/63 113/192/63
f 110/193/64 109/196/64 113/194/64
f 109/196/64 111/200/64 115/197/64
f 110/193/64 114/195/64 116/198/64
f 111/200/64 112/199/64 116/198/64
f 119/201/65 123/214/65 124/202/65
f 110/204/66 118/297/66 117/205/66
f 111/207/67 119/209/67 120/187/67
f 109/206/92 117/205/92 119/209/92
f 124/210/69 128/226/69 126/211/69
f 117/213/70 121/218/70 123/214/70
f 118/215/71 120/203/71 124/202/71
f 118/217/72 122/298/72 121/218/72
f 127/219/41 125/299/41 126/220/41
f 122/222/73 126/300/73 125/223/73
f 123/225/74 127/227/74 128/226/74
f 123/225/75 121/224/75 125/223/75
f 136/229/76 129/234/76 132/230/76
f 129/234/76 130/231/76 132/230/76
f 130/231/76 131/265/76 132/230/76
f 132/230/76 133/244/76 134/240/76
f 134/240/76 135/228/76 132/230/76
f 130/231/76 129/234/76 145/232/76
f 129/234/93 136/229/93 152/235/93
f 9/236/89 141/267/89 140/237/89
f 136/229/94 135/228/94 151/239/94
f 134/240/95 150/245/95 151/239/95
f 13/241/96 143/264/96 142/242/96
f 133/244/78 149/269/78 150/245/78
f 140/246/21 148/253/21 147/247/21
f 143/249/24 151/255/24 150/250/24
f 141/252/22 149/258/22 148/253/22
f 143/249/25 144/301/25 152/254/25
f 138/256/20 139/248/20 147/247/20
f 142/251/23 150/250/23 149/258/23
f 144/259/26 137/262/26 145/260/26
f 137/262/19 138/256/19 146/257/19
f 13/241/97 15/271/97 144/263/97
f 131/265/98 130/231/98 146/233/98
f 11/243/99 142/242/99 141/267/99
f 131/265/100 147/266/100 148/268/100
f 132/230/101 148/268/101 149/269/101
f 7/238/102 140/237/102 139/21/102
f 15/271/7 1/273/7 137/272/7
f 1/273/103 3/20/103 138/22/103
