# Blender v2.79 (sub 0) OBJ File: ''
# www.blender.org
mtllib untitled.mtl
o Plane.003
v -3.000000 0.000000 3.000000
v 3.000000 0.000000 3.000000
v -3.000000 9.000000 3.000000
v 3.000000 9.000000 3.000000
vt 0.666640 0.000082
vt 0.000082 0.999918
vt 0.000082 0.000082
vt 0.666640 0.999918
vn 0.0000 0.0000 -1.0000
usemtl wall_material
s off
f 1/1/1 4/2/1 2/3/1
f 1/1/1 3/4/1 4/2/1
o Plane.002
v 3.000000 0.000000 -3.000000
v -3.000000 0.000000 -3.000000
v 3.000000 9.000000 -3.000000
v -3.000000 9.000000 -3.000000
vt 0.666640 0.000082
vt 0.000082 0.999918
vt 0.000082 0.000082
vt 0.666640 0.999918
vn -0.0000 0.0000 1.0000
usemtl wall_material
s off
f 5/5/2 8/6/2 6/7/2
f 5/5/2 7/8/2 8/6/2
o Plane.001
v -3.000000 0.000000 -3.000000
v -3.000000 0.000000 3.000000
v -3.000000 9.000000 -3.000000
v -3.000000 9.000000 3.000000
vt 0.666640 0.000082
vt 0.000082 0.999918
vt 0.000082 0.000082
vt 0.666640 0.999918
vn 1.0000 0.0000 0.0000
usemtl wall_material
s off
f 9/9/3 12/10/3 10/11/3
f 9/9/3 11/12/3 12/10/3
o Plane
v 3.000000 0.000000 3.000000
v 3.000000 0.000000 -3.000000
v 3.000000 9.000000 3.000000
v 3.000000 9.000000 -3.000000
vt 0.666640 0.000082
vt 0.000082 0.999918
vt 0.000082 0.000082
vt 0.666640 0.999918
vn -1.0000 0.0000 0.0000
usemtl wall_material
s off
f 13/13/4 16/14/4 14/15/4
f 13/13/4 15/16/4 16/14/4
